{"title":"The.Noite.2018.06.14.720p.WEB-DL.x264-Skylane77","magnet":"magnet:?xt=urn:btih:cdf55e75b3361b148e7e13a2dea2821cf4253acc&dn=The.Noite.2018.06.14.720p.WEB-DL.x264-Skylane77&tr=udp%3A%2F%2Ftracker.leechers-paradise.org%3A6969&tr=udp%3A%2F%2Fzer0day.ch%3A1337&tr=udp%3A%2F%2Fopen.demonii.com%3A1337&tr=udp%3A%2F%2Ftracker.coppersurfer.tk%3A6969&tr=udp%3A%2F%2Fexodus.desync.com%3A6969","uploader":"beechbaron77","categoryP":"video","categoryS":"tv_shows","size":"543682050","seeders":"3","leechers":"0","description":"Yudi Tamashiro; Priscilla Alcantara\r\n\r\nEntrevista com os apresentadores Cassio Yudi Muniz Tamashiro e Priscilla Alcantara Silva Fonseca, que comandaram o programa &quot;Bom Dia &amp; Companhia&quot;; Priscilla Alcantara encerra o programa com o videoclipe de &quot;Me Refez&quot;.\r\n\r\n--\r\nGeneral\r\nComplete name: The.Noite.com.Danilo.Gentili.2018.06.14.720p.WEB-DL.x264-Skylane77.mp4\r\nFormat: MPEG-4\r\nFormat profile: Base Media\r\nCodec ID: isom (isom/iso2/avc1/mp41)\r\nFile size: 518 MiB\r\nDuration: 51 min 27 s\r\nOverall bit rate mode: Variable\r\nOverall bit rate: 1 409 kb/s\r\nWriting application: Lavf58.12.100\r\n\r\nVideo\r\nID: 1\r\nFormat: AVC\r\nFormat/Info: Advanced Video Codec\r\nFormat profile: Main@L3.1\r\nFormat settings: CABAC / 3 Ref Frames\r\nFormat settings, CABAC: Yes\r\nFormat settings, ReFrames: 3 frames\r\nCodec ID: avc1\r\nCodec ID/Info: Advanced Video Coding\r\nDuration: 51 min 27 s\r\nBit rate: 1 275 kb/s\r\nWidth: 1 280 pixels\r\nHeight: 720 pixels\r\nDisplay aspect ratio: 16:9\r\nFrame rate mode: Constant\r\nFrame rate: 30.000 FPS\r\nColor space: YUV\r\nChroma subsampling: 4:2:0\r\nBit depth: 8 bits\r\nScan type: Progressive\r\nBits/(Pixel*Frame): 0.046\r\nStream size: 469 MiB (90%)\r\nColor range: Limited\r\nColor primaries: BT.709\r\nTransfer characteristics: BT.709\r\nMatrix coefficients: BT.709\r\n\r\nAudio\r\nID: 2\r\nFormat: AAC\r\nFormat/Info: Advanced Audio Codec\r\nFormat profile: LC\r\nCodec ID: mp4a-40-2\r\nDuration: 51 min 27 s\r\nBit rate mode: Variable\r\nBit rate: 126 kb/s\r\nMaximum bit rate: 155 kb/s\r\nChannel(s): 2 channels\r\nChannel positions: Front: L R\r\nSampling rate: 44.1 kHz\r\nFrame rate: 43.066 FPS (1024 SPF)\r\nCompression mode: Lossy\r\nStream size: 46.2 MiB (9%)\r\nDefault: Yes\r\nAlternate group: 1","last_updated":"2018-06-16T12:10:57.098Z","parsed":{"xt":"urn:btih:cdf55e75b3361b148e7e13a2dea2821cf4253acc","dn":"The.Noite.2018.06.14.720p.WEB-DL.x264-Skylane77","tr":["udp://exodus.desync.com:6969","udp://open.demonii.com:1337","udp://tracker.coppersurfer.tk:6969","udp://tracker.leechers-paradise.org:6969","udp://zer0day.ch:1337"],"infoHash":"cdf55e75b3361b148e7e13a2dea2821cf4253acc","infoHashBuffer":{"type":"Buffer","data":[205,245,94,117,179,54,27,20,142,126,19,162,222,162,130,28,244,37,58,204]},"name":"The.Noite.2018.06.14.720p.WEB-DL.x264-Skylane77","announce":["udp://exodus.desync.com:6969","udp://open.demonii.com:1337","udp://tracker.coppersurfer.tk:6969","udp://tracker.leechers-paradise.org:6969","udp://zer0day.ch:1337"],"urlList":[]}}